<?xml version="1.0" encoding="UTF-8"?>
<svg id="Layer_2" data-name="Layer 2" xmlns="http://www.w3.org/2000/svg" viewBox="0 0 68.37 67.58">
  <defs>
    <style>
      .cls-1 {
        fill: #0d0d0d;
      }
    </style>
  </defs>
  <g id="Capa_3" data-name="Capa 3">
    <path class="cls-1" d="m66.08,1.72c-3.51,3.44-6.96,6.94-10.43,10.41-.37.37-.72.77-1.36,1.47,4.1,0,7.72.05,11.33-.03,1.37-.03,1.81.43,1.8,1.79-.03,12.41,0,24.81-.06,37.22,0,.83-.45,1.85-1.03,2.45-3.79,3.92-7.65,7.78-11.56,11.59-.53.52-1.45.92-2.19.92-12.55.06-25.1.06-37.66,0-.79,0-1.76-.42-2.32-.97-3.92-3.8-7.78-7.66-11.58-11.57-.55-.57-.98-1.54-.98-2.32C-.01,40.12-.02,27.56.04,15.01c0-.83.45-1.84,1.03-2.45,3.59-3.71,7.3-7.29,10.9-10.99C13.06.45,14.18,0,15.75,0c16.22.06,36.39.18,52.61.18m-14.7,15.43c.01-1.32-.33-1.83-1.75-1.82-12.15.08-24.31.11-36.47.11-1.19,0-1.66.34-1.65,1.6.03,12.26.03,24.52-.01,36.77,0,1.19.42,1.52,1.56,1.52,12.26-.03,24.51-.03,36.77,0,1.19,0,1.54-.43,1.53-1.57-.04-6.15-.02-12.31-.02-18.46h.01c0-6.05-.03-12.11.02-18.16Z"/>
  </g>
</svg>