<svg width="40" height="40" viewBox="0 0 40 40" fill="none" xmlns="http://www.w3.org/2000/svg">
<path d="M19.78 39.56C14.5356 39.5547 9.5076 37.4691 5.79927 33.7607C2.09095 30.0524 0.00529466 25.0244 0 19.78C0.00529466 14.5356 2.09095 9.50761 5.79927 5.79929C9.5076 2.09096 14.5356 0.00529466 19.78 0C25.0235 0.00793476 30.0501 2.09445 33.7578 5.8022C37.4656 9.50995 39.5521 14.5365 39.56 19.78C39.5547 25.0244 37.469 30.0524 33.7607 33.7607C30.0524 37.4691 25.0244 39.5547 19.78 39.56ZM19.78 1.5C14.9335 1.50529 10.287 3.43292 6.85994 6.85994C3.43292 10.287 1.50529 14.9335 1.5 19.78C1.50529 24.6265 3.43292 29.2731 6.85994 32.7001C10.287 36.1271 14.9335 38.0547 19.78 38.06C24.6265 38.0547 29.273 36.1271 32.7001 32.7001C36.1271 29.2731 38.0547 24.6265 38.06 19.78C38.0547 14.9335 36.1271 10.287 32.7001 6.85994C29.273 3.43292 24.6265 1.50529 19.78 1.5Z" fill="white"/>
<path d="M16.88 31.2901H21.51V19.6801H24.74L25.09 15.8H21.51V13.59C21.51 12.67 21.69 12.3101 22.58 12.3101H25.09V8.31006H21.88C18.43 8.31006 16.88 9.83005 16.88 12.73V15.8301H14.47V19.7601H16.88V31.2901Z" fill="white"/>
</svg>
