<svg width="40" height="40" viewBox="0 0 40 40" fill="none" xmlns="http://www.w3.org/2000/svg">
<path d="M19.78 39.56C14.5356 39.5547 9.5076 37.469 5.79927 33.7607C2.09095 30.0524 0.00529466 25.0244 0 19.78C0.00529466 14.5356 2.09095 9.5076 5.79927 5.79928C9.5076 2.09096 14.5356 0.00529466 19.78 0C25.0244 0.00529466 30.0524 2.09096 33.7607 5.79928C37.469 9.5076 39.5547 14.5356 39.56 19.78C39.5547 25.0244 37.469 30.0524 33.7607 33.7607C30.0524 37.469 25.0244 39.5547 19.78 39.56ZM19.78 1.5C14.9335 1.50529 10.287 3.43291 6.85994 6.85993C3.43292 10.287 1.50529 14.9335 1.5 19.78C1.50529 24.6265 3.43292 29.273 6.85994 32.7001C10.287 36.1271 14.9335 38.0547 19.78 38.06C24.6265 38.0547 29.273 36.1271 32.7001 32.7001C36.1271 29.273 38.0547 24.6265 38.06 19.78C38.0547 14.9335 36.1271 10.287 32.7001 6.85993C29.273 3.43291 24.6265 1.50529 19.78 1.5Z" fill="white"/>
<path d="M19.78 16.3C18.8571 16.3 17.9719 16.6667 17.3193 17.3193C16.6667 17.9719 16.3 18.8571 16.3 19.7801C16.3 20.703 16.6667 21.5882 17.3193 22.2408C17.9719 22.8934 18.8571 23.2601 19.78 23.2601C20.703 23.2601 21.5882 22.8934 22.2408 22.2408C22.8934 21.5882 23.2601 20.703 23.2601 19.7801C23.2601 18.8571 22.8934 17.9719 22.2408 17.3193C21.5882 16.6667 20.703 16.3 19.78 16.3Z" fill="white"/>
<path d="M30.15 15.4801C30.1356 14.6155 29.9733 13.7598 29.67 12.9501C29.4053 12.2531 28.9925 11.6219 28.46 11.1001C27.9432 10.5686 27.3147 10.1588 26.62 9.9001C25.8072 9.59395 24.9483 9.42825 24.08 9.4101C22.97 9.4101 22.62 9.3501 19.78 9.3501C16.94 9.3501 16.59 9.3501 15.48 9.4101C14.6148 9.42703 13.7589 9.59279 12.95 9.9001C12.2517 10.1574 11.6197 10.5674 11.1 11.1001C10.5675 11.6219 10.1546 12.2531 9.88998 12.9501C9.59144 13.7612 9.42925 14.6161 9.40998 15.4801C9.35998 16.5901 9.34998 16.9501 9.34998 19.7801C9.34998 22.6101 9.34998 22.9701 9.40998 24.0801C9.42943 24.9474 9.5916 25.8055 9.88998 26.6201C10.1572 27.3158 10.5697 27.9465 11.1 28.4701C11.6222 28.9997 12.2535 29.4092 12.95 29.6701C13.7597 29.9734 14.6154 30.1358 15.48 30.1501C16.59 30.2001 16.95 30.2201 19.78 30.2201C22.61 30.2201 22.97 30.2201 24.08 30.1501C24.9477 30.1346 25.8065 29.9723 26.62 29.6701C27.3122 29.4065 27.9397 28.9973 28.46 28.4701C28.9903 27.9465 29.4028 27.3158 29.67 26.6201C29.9733 25.8069 30.1356 24.9479 30.15 24.0801C30.15 22.9701 30.22 22.6201 30.22 19.7801C30.22 16.9401 30.2 16.5901 30.15 15.4801ZM19.78 25.1401C18.3584 25.1401 16.9951 24.5754 15.9899 23.5702C14.9847 22.565 14.42 21.2017 14.42 19.7801C14.42 18.3585 14.9847 16.9952 15.9899 15.99C16.9951 14.9848 18.3584 14.4201 19.78 14.4201C21.2015 14.4201 22.5649 14.9848 23.5701 15.99C24.5753 16.9952 25.14 18.3585 25.14 19.7801C25.14 21.2017 24.5753 22.565 23.5701 23.5702C22.5649 24.5754 21.2015 25.1401 19.78 25.1401ZM25.35 15.4601C25.1858 15.4601 25.0233 15.4278 24.8716 15.3649C24.72 15.3021 24.5822 15.2101 24.4661 15.094C24.35 14.9779 24.2579 14.8401 24.1951 14.6885C24.1323 14.5368 24.1 14.3743 24.1 14.2101C24.1 13.8786 24.2317 13.5606 24.4661 13.3262C24.7005 13.0918 25.0185 12.9601 25.35 12.9601C25.6815 12.9601 25.9994 13.0918 26.2339 13.3262C26.4683 13.5606 26.6 13.8786 26.6 14.2101C26.6 14.5416 26.4683 14.8596 26.2339 15.094C25.9994 15.3284 25.6815 15.4601 25.35 15.4601Z" fill="white"/>
</svg>
