<svg width="40" height="40" viewBox="0 0 40 40" fill="none" xmlns="http://www.w3.org/2000/svg">
<g clip-path="url(#clip0_156_876)">
<path d="M19.78 39.56C14.5365 39.5521 9.50994 37.4656 5.80219 33.7578C2.09444 30.0501 0.00793476 25.0235 0 19.78C0.00529466 14.5356 2.09095 9.50759 5.79928 5.79927C9.5076 2.09095 14.5356 0.00529466 19.78 0C25.0244 0.00529466 30.0524 2.09095 33.7607 5.79927C37.469 9.50759 39.5547 14.5356 39.56 19.78C39.5547 25.0244 37.469 30.0524 33.7607 33.7607C30.0524 37.469 25.0244 39.5547 19.78 39.56ZM19.78 1.5C14.9335 1.50529 10.287 3.43291 6.85993 6.85993C3.43292 10.287 1.50529 14.9335 1.5 19.78C1.50529 24.6265 3.43292 29.273 6.85993 32.7001C10.287 36.1271 14.9335 38.0547 19.78 38.06C24.6265 38.0547 29.273 36.1271 32.7001 32.7001C36.1271 29.273 38.0547 24.6265 38.06 19.78C38.0547 14.9335 36.1271 10.287 32.7001 6.85993C29.273 3.43291 24.6265 1.50529 19.78 1.5Z" fill="white"/>
<path d="M15.09 15.54H11.15V28.26H15.09V15.54Z" fill="white"/>
<path d="M13.1 13.8701C13.4073 13.8688 13.7113 13.807 13.9947 13.6882C14.2781 13.5694 14.5353 13.3959 14.7517 13.1777C14.9681 12.9595 15.1393 12.7008 15.2557 12.4164C15.3721 12.132 15.4313 11.8274 15.43 11.5201C15.4313 11.2128 15.3721 10.9083 15.2557 10.6239C15.1393 10.3395 14.9681 10.0808 14.7517 9.86255C14.5353 9.64433 14.2781 9.47087 13.9947 9.35206C13.7113 9.23325 13.4073 9.17142 13.1 9.17011C12.7894 9.16613 12.481 9.22404 12.193 9.34048C11.905 9.45692 11.643 9.62955 11.4224 9.8483C11.2018 10.067 11.0269 10.3275 10.908 10.6146C10.7892 10.9016 10.7286 11.2094 10.73 11.5201C10.7286 11.8308 10.7892 12.1386 10.908 12.4257C11.0269 12.7127 11.2018 12.9732 11.4224 13.1919C11.643 13.4107 11.905 13.5833 12.193 13.6997C12.481 13.8162 12.7894 13.8741 13.1 13.8701Z" fill="white"/>
<path d="M21.39 21.58C21.39 19.79 22.21 18.73 23.79 18.73C25.37 18.73 25.93 19.73 25.93 21.58V28.28H29.85V20.22C29.85 16.81 27.92 15.22 25.22 15.22C24.4582 15.2041 23.7052 15.3854 23.0341 15.7463C22.363 16.1073 21.7967 16.6356 21.39 17.28V15.57H17.61V28.28H21.39V21.58Z" fill="white"/>
</g>
<defs>
<clipPath id="clip0_156_876">
<rect width="39.56" height="39.56" fill="white"/>
</clipPath>
</defs>
</svg>
