<?xml version="1.0" encoding="UTF-8"?>
<svg id="Capa_2" data-name="Capa 2" xmlns="http://www.w3.org/2000/svg" viewBox="0 0 523.25 212.77">
  <defs>
    <style>
      .cls-1 {
        fill: #fefefe;
      }
    </style>
  </defs>
  <g id="Logo">
    <g>
      <path class="cls-1" d="m150.11,91.18h-.13l-.02-.03c-.93-1.85-2.86-3-4.94-3.05l-20.82-.5,23.17-23.17,3.15-3.19-35.26-.84H35.81c-3.07,0-6.01,1.22-8.18,3.39L3.39,88.04c-2.17,2.17-3.39,5.11-3.39,8.18v82.37c0,3.1,1.24,6.06,3.44,8.24l21.44,21.16c2.16,2.13,5.06,3.33,8.09,3.34l85.23.28c3.08.01,6.04-1.21,8.22-3.39l21.4-21.4c2.17-2.17,3.39-5.12,3.39-8.18v-82.28c0-1.81-.43-3.58-1.23-5.17h.13Zm-29.61,81.26c0,6.39-5.18,11.57-11.57,11.57H42.96c-6.39,0-11.57-5.18-11.57-11.57v-68.86c0-6.39,5.18-11.57,11.57-11.57h65.97c6.39,0,11.57,5.18,11.57,11.57v68.86Z"/>
      <path class="cls-1" d="m522.7,61.87c.35-.34.55-.81.55-1.3h0s0-.02,0-.02V5.79c0-3.2-2.59-5.79-5.79-5.79h-19.1c-3.2,0-5.79,2.59-5.79,5.79v24.88l27.1,27.1c.69.69.69,1.82,0,2.51l-1.09,1.09-31.83.2h-79.45c-3.07,0-6.01,1.22-8.18,3.39l-24.24,24.24c-2.17,2.17-3.39,5.11-3.39,8.18v82.37c0,3.1,1.24,6.06,3.44,8.24l21.44,21.16c2.16,2.13,5.06,3.33,8.09,3.34l85.23.28c3.08.01,6.04-1.21,8.22-3.39l21.4-21.4c2.17-2.17,3.39-5.11,3.39-8.18v-82.28c0-1.81-.43-3.58-1.23-5.17h.13s-.13,0-.13,0c-.92-1.84-2.79-3.03-4.85-3.08l-20.93-.5,23.17-23.17,3.83-3.72Zm-29.54,109.99c0,6.39-5.18,11.57-11.57,11.57h-65.97c-6.39,0-11.57-5.18-11.57-11.57v-68.86c0-6.39,5.18-11.57,11.57-11.57h65.97c6.39,0,11.57,5.18,11.57,11.57v68.86Z"/>
      <path class="cls-1" d="m336.37,61.87c.35-.34.55-.81.55-1.3h0s0-.02,0-.02V5.79c0-3.2-2.59-5.79-5.79-5.79h-19.1c-3.2,0-5.79,2.59-5.79,5.79v24.88l27.1,27.1c.69.69.69,1.82,0,2.51l-1.09,1.09-31.83.2h-79.45c-3.07,0-6.01,1.22-8.18,3.39l-24.24,24.24c-2.17,2.17-3.39,5.11-3.39,8.18v82.37c0,3.1,1.24,6.06,3.44,8.24l21.44,21.16c2.16,2.13,5.06,3.33,8.09,3.34l85.23.28c3.08.01,6.04-1.21,8.22-3.39l21.4-21.4c2.17-2.17,3.39-5.11,3.39-8.18v-82.28c0-1.81-.43-3.58-1.23-5.17h.13s-.13,0-.13,0c-.92-1.84-2.79-3.03-4.85-3.08l-20.93-.5,23.17-23.17,3.83-3.72Zm-29.54,109.99c0,6.39-5.18,11.57-11.57,11.57h-65.97c-6.39,0-11.57-5.18-11.57-11.57v-68.86c0-6.39,5.18-11.57,11.57-11.57h65.97c6.39,0,11.57,5.18,11.57,11.57v68.86Z"/>
    </g>
  </g>
</svg>