<svg width="86" height="86" viewBox="0 0 86 86" fill="none" xmlns="http://www.w3.org/2000/svg">
<circle cx="43" cy="43" r="41.5" stroke="url(#paint0_linear_442_464)" stroke-width="3"/>
<path d="M50.9946 43.5259C50.9956 44.0757 50.8097 44.6085 50.4692 45.0318L39.0465 59.15C38.6587 59.6305 38.1015 59.9327 37.4974 59.99C36.8933 60.0474 36.2918 59.8553 35.8253 59.4559C35.3588 59.0565 35.0654 58.4825 35.0097 57.8603C34.954 57.2381 35.1405 56.6186 35.5283 56.1381L45.763 43.5259L35.8938 30.9137C35.7041 30.673 35.5623 30.396 35.4768 30.0988C35.3913 29.8015 35.3637 29.4897 35.3955 29.1814C35.4274 28.8731 35.5181 28.5743 35.6624 28.3022C35.8067 28.0301 36.0018 27.7901 36.2365 27.5959C36.4714 27.3804 36.747 27.2172 37.046 27.1165C37.345 27.0158 37.6609 26.9798 37.974 27.0107C38.2872 27.0417 38.5907 27.1389 38.8657 27.2962C39.1406 27.4536 39.3811 27.6678 39.5719 27.9253L50.6062 42.0435C50.893 42.479 51.0297 43.0009 50.9946 43.5259Z" fill="url(#paint1_linear_442_464)"/>
<defs>
<linearGradient id="paint0_linear_442_464" x1="43" y1="0" x2="43" y2="86" gradientUnits="userSpaceOnUse">
<stop stop-color="#F58BFC"/>
<stop offset="1" stop-color="#92E8FA"/>
</linearGradient>
<linearGradient id="paint1_linear_442_464" x1="35" y1="43.5" x2="51" y2="43.5" gradientUnits="userSpaceOnUse">
<stop stop-color="#F58BFC"/>
<stop offset="1" stop-color="#92E8FA"/>
</linearGradient>
</defs>
</svg>
