<svg width="86" height="86" viewBox="0 0 86 86" fill="none" xmlns="http://www.w3.org/2000/svg">
<circle cx="43" cy="43" r="41.5" transform="matrix(-1 0 0 1 86 0)" stroke="url(#paint0_linear_442_467)" stroke-width="3"/>
<path d="M35.0054 43.5259C35.0044 44.0757 35.1903 44.6085 35.5308 45.0318L46.9535 59.15C47.3413 59.6305 47.8985 59.9327 48.5026 59.99C49.1067 60.0474 49.7082 59.8553 50.1747 59.4559C50.6412 59.0565 50.9346 58.4825 50.9903 57.8603C51.046 57.2381 50.8595 56.6186 50.4717 56.1381L40.237 43.5259L50.1062 30.9137C50.2959 30.673 50.4377 30.396 50.5232 30.0988C50.6087 29.8015 50.6363 29.4897 50.6045 29.1814C50.5726 28.8731 50.4819 28.5743 50.3376 28.3022C50.1933 28.0301 49.9982 27.7901 49.7635 27.5959C49.5286 27.3804 49.253 27.2172 48.954 27.1165C48.655 27.0158 48.3391 26.9798 48.026 27.0107C47.7128 27.0417 47.4093 27.1389 47.1343 27.2962C46.8594 27.4536 46.6189 27.6678 46.4281 27.9253L35.3938 42.0435C35.107 42.479 34.9703 43.0009 35.0054 43.5259Z" fill="url(#paint1_linear_442_467)"/>
<defs>
<linearGradient id="paint0_linear_442_467" x1="43" y1="0" x2="43" y2="86" gradientUnits="userSpaceOnUse">
<stop stop-color="#F58BFC"/>
<stop offset="1" stop-color="#92E8FA"/>
</linearGradient>
<linearGradient id="paint1_linear_442_467" x1="51" y1="43.5" x2="35" y2="43.5" gradientUnits="userSpaceOnUse">
<stop stop-color="#F58BFC"/>
<stop offset="1" stop-color="#92E8FA"/>
</linearGradient>
</defs>
</svg>
